<svg xmlns="http://www.w3.org/2000/svg" xmlns:xlink="http://www.w3.org/1999/xlink" id="Layer_1" width="1000" height="1000" x="0" y="0" enable-background="new 0 0 1000 1000" version="1.1" viewBox="0 0 1000 1000" xml:space="preserve"><polygon fill="#45FF28" points="100 300 106.25 273.474 106.25 329.651"/><polygon fill="#45FF28" points="106.25 273.474 106.25 329.651 120.312 249.121"/><polygon fill="#45FF28" points="106.25 329.651 120.312 249.121 120.312 361.035"/><polygon fill="#45FF28" points="120.312 249.121 120.312 361.035 139.386 226.419"/><polygon fill="#45FF28" points="120.312 361.035 139.386 226.419 162.5 205.469"/><polygon fill="#45FF28" points="120.312 361.035 139.386 393.274 162.5 205.469"/><polygon fill="#45FF28" points="139.386 393.274 162.5 205.469 162.5 425.781"/><polygon fill="#45FF28" points="162.5 205.469 162.5 425.781 187.714 186.252"/><polygon fill="#45FF28" points="162.5 425.781 187.714 186.252 215.137 168.604"/><polygon fill="#45FF28" points="162.5 425.781 187.714 457.605 275 137.5"/><polygon fill="#45FF28" points="162.5 425.781 215.137 168.604 244.568 152.57"/><polygon fill="#45FF28" points="162.5 425.781 244.568 152.57 275 137.5"/><polygon fill="#45FF28" points="187.714 457.605 215.137 488.965 275 137.5"/><polygon fill="#45FF28" points="215.137 488.965 244.568 519.714 275 137.5"/><polygon fill="#45FF28" points="244.568 519.714 275 137.5 275 550"/><polygon fill="#45FF28" points="275 137.5 275 550 550 412.5"/><polygon fill="#45FF28" points="275 137.5 305.334 122.186 550 412.5"/><polygon fill="#45FF28" points="275 550 305.334 580.481 550 412.5"/><polygon fill="#45FF28" points="305.334 122.186 335.645 108.35 550 412.5"/><polygon fill="#45FF28" points="305.334 580.481 335.645 609.473 550 412.5"/><polygon fill="#45FF28" points="335.645 108.35 365.692 97.263 550 412.5"/><polygon fill="#45FF28" points="335.645 609.473 365.692 635.583 550 412.5"/><polygon fill="#45FF28" points="365.692 97.263 395.312 89.063 550 412.5"/><polygon fill="#45FF28" points="365.692 635.583 395.312 658.594 550 412.5"/><polygon fill="#45FF28" points="395.312 89.063 424.689 83.768 542.188 235.938"/><polygon fill="#45FF28" points="395.312 89.063 542.188 235.938 546.594 278.165"/><polygon fill="#45FF28" points="395.312 89.063 546.594 278.165 549.219 321.924"/><polygon fill="#45FF28" points="395.312 89.063 549.219 321.924 550.098 366.949"/><polygon fill="#45FF28" points="395.312 89.063 550 412.5 550.098 366.949"/><polygon fill="#45FF28" points="395.312 658.594 424.689 678.577 542.188 585.156"/><polygon fill="#45FF28" points="395.312 658.594 542.188 585.156 546.594 545.132"/><polygon fill="#45FF28" points="395.312 658.594 546.594 545.132 549.219 502.686"/><polygon fill="#45FF28" points="395.312 658.594 549.219 502.686 550.098 458.099"/><polygon fill="#45FF28" points="395.312 658.594 550 412.5 550.098 458.099"/><polygon fill="#45FF28" points="424.689 83.768 452.539 83.008 542.188 235.938"/><polygon fill="#45FF28" points="424.689 678.577 452.539 693.262 542.188 585.156"/><polygon fill="#45FF28" points="452.539 83.008 478.149 87.524 527.148 157.617"/><polygon fill="#45FF28" points="452.539 83.008 527.148 157.617 535.925 195.004"/><polygon fill="#45FF28" points="452.539 83.008 535.925 195.004 542.188 235.938"/><polygon fill="#45FF28" points="452.539 693.262 478.149 701.55 527.148 655.957"/><polygon fill="#45FF28" points="452.539 693.262 527.148 655.957 535.925 622.958"/><polygon fill="#45FF28" points="452.539 693.262 535.925 622.958 542.188 585.156"/><polygon fill="#45FF28" points="478.149 87.524 500 100 515.601 124.976"/><polygon fill="#45FF28" points="478.149 87.524 515.601 124.976 527.148 157.617"/><polygon fill="#45FF28" points="478.149 701.55 500 700 515.601 682.825"/><polygon fill="#45FF28" points="478.149 701.55 515.601 682.825 527.148 655.957"/></svg>