<svg xmlns="http://www.w3.org/2000/svg" xmlns:xlink="http://www.w3.org/1999/xlink" id="Layer_1" width="1000" height="1000" x="0" y="0" enable-background="new 0 0 1000 1000" version="1.1" viewBox="0 0 1000 1000" xml:space="preserve"><polygon fill="#45FF28" points="100 300 162.5 205.469 162.5 425.781"/><polygon fill="#45FF28" points="162.5 205.469 162.5 425.781 275 137.5"/><polygon fill="#45FF28" points="162.5 425.781 275 137.5 275 550"/><polygon fill="#45FF28" points="275 137.5 275 550 550 412.5"/><polygon fill="#45FF28" points="275 137.5 395.312 89.063 550 412.5"/><polygon fill="#45FF28" points="275 550 395.312 658.594 550 412.5"/><polygon fill="#45FF28" points="395.312 89.063 500 100 542.188 235.938"/><polygon fill="#45FF28" points="395.312 89.063 542.188 235.938 550 412.5"/><polygon fill="#45FF28" points="395.312 658.594 500 700 542.188 585.156"/><polygon fill="#45FF28" points="395.312 658.594 542.188 585.156 550 412.5"/></svg>