<svg xmlns="http://www.w3.org/2000/svg" xmlns:xlink="http://www.w3.org/1999/xlink" id="Layer_1" width="1000" height="1000" x="0" y="0" enable-background="new 0 0 1000 1000" version="1.1" viewBox="0 0 1000 1000" xml:space="preserve"><polygon fill="#45FF28" points="100 300 120.312 249.121 120.312 361.035"/><polygon fill="#45FF28" points="120.312 249.121 120.312 361.035 162.5 205.469"/><polygon fill="#45FF28" points="120.312 361.035 162.5 205.469 162.5 425.781"/><polygon fill="#45FF28" points="162.5 205.469 162.5 425.781 215.137 168.604"/><polygon fill="#45FF28" points="162.5 425.781 215.137 168.604 275 137.5"/><polygon fill="#45FF28" points="162.5 425.781 215.137 488.965 275 137.5"/><polygon fill="#45FF28" points="215.137 488.965 275 137.5 275 550"/><polygon fill="#45FF28" points="275 137.5 275 550 550 412.5"/><polygon fill="#45FF28" points="275 137.5 335.645 108.35 550 412.5"/><polygon fill="#45FF28" points="275 550 335.645 609.473 550 412.5"/><polygon fill="#45FF28" points="335.645 108.35 395.312 89.063 550 412.5"/><polygon fill="#45FF28" points="335.645 609.473 395.312 658.594 550 412.5"/><polygon fill="#45FF28" points="395.312 89.063 452.539 83.008 542.188 235.938"/><polygon fill="#45FF28" points="395.312 89.063 542.188 235.938 549.219 321.924"/><polygon fill="#45FF28" points="395.312 89.063 549.219 321.924 550 412.5"/><polygon fill="#45FF28" points="395.312 658.594 452.539 693.262 542.188 585.156"/><polygon fill="#45FF28" points="395.312 658.594 542.188 585.156 549.219 502.686"/><polygon fill="#45FF28" points="395.312 658.594 549.219 502.686 550 412.5"/><polygon fill="#45FF28" points="452.539 83.008 500 100 527.148 157.617"/><polygon fill="#45FF28" points="452.539 83.008 527.148 157.617 542.188 235.938"/><polygon fill="#45FF28" points="452.539 693.262 500 700 527.148 655.957"/><polygon fill="#45FF28" points="452.539 693.262 527.148 655.957 542.188 585.156"/></svg>