<svg xmlns="http://www.w3.org/2000/svg" xmlns:xlink="http://www.w3.org/1999/xlink" id="Layer_1" width="500" height="500" x="0" y="0" enable-background="new 0 0 500 500" version="1.1" viewBox="0 0 500 500" xml:space="preserve"><polygon fill="#000" points="0 0 0 500 10 500"/><polygon fill="#001DFF" points="0 0 10 500 20 500"/><polygon fill="#000" points="0 0 20 500 30 500"/><polygon fill="#001DFF" points="0 0 30 500 40 500"/><polygon fill="#000" points="0 0 40 500 50 500"/><polygon fill="#001DFF" points="0 0 50 500 60 500"/><polygon fill="#000" points="0 0 60 500 70 500"/><polygon fill="#001DFF" points="0 0 70 500 80 500"/><polygon fill="#000" points="0 0 80 500 90 500"/><polygon fill="#001DFF" points="0 0 90 500 100 500"/><polygon fill="#000" points="0 0 100 500 110 500"/><polygon fill="#001DFF" points="0 0 110 500 120 500"/><polygon fill="#000" points="0 0 120 500 130 500"/><polygon fill="#001DFF" points="0 0 130 500 140 500"/><polygon fill="#000" points="0 0 140 500 150 500"/><polygon fill="#001DFF" points="0 0 150 500 160 500"/><polygon fill="#000" points="0 0 160 500 170 500"/><polygon fill="#001DFF" points="0 0 170 500 180 500"/><polygon fill="#000" points="0 0 180 500 190 500"/><polygon fill="#001DFF" points="0 0 190 500 200 500"/><polygon fill="#000" points="0 0 200 500 210 500"/><polygon fill="#001DFF" points="0 0 210 500 220 500"/><polygon fill="#000" points="0 0 220 500 230 500"/><polygon fill="#001DFF" points="0 0 230 500 240 500"/><polygon fill="#000" points="0 0 240 500 250 500"/><polygon fill="#001DFF" points="0 0 250 500 260 500"/><polygon fill="#000" points="0 0 260 500 270 500"/><polygon fill="#001DFF" points="0 0 270 500 280 500"/><polygon fill="#000" points="0 0 280 500 290 500"/><polygon fill="#001DFF" points="0 0 290 500 300 500"/><polygon fill="#000" points="0 0 300 500 310 500"/><polygon fill="#001DFF" points="0 0 310 500 320 500"/><polygon fill="#000" points="0 0 320 500 330 500"/><polygon fill="#001DFF" points="0 0 330 500 340 500"/><polygon fill="#000" points="0 0 340 500 350 500"/><polygon fill="#001DFF" points="0 0 350 500 360 500"/><polygon fill="#000" points="0 0 360 500 370 500"/><polygon fill="#001DFF" points="0 0 370 500 380 500"/><polygon fill="#000" points="0 0 380 500 390 500"/><polygon fill="#001DFF" points="0 0 390 500 400 500"/><polygon fill="#000" points="0 0 400 500 410 500"/><polygon fill="#001DFF" points="0 0 410 500 420 500"/><polygon fill="#000" points="0 0 420 500 430 500"/><polygon fill="#001DFF" points="0 0 430 500 440 500"/><polygon fill="#000" points="0 0 440 500 450 500"/><polygon fill="#001DFF" points="0 0 450 500 460 500"/><polygon fill="#000" points="0 0 460 500 470 500"/><polygon fill="#001DFF" points="0 0 470 500 480 500"/><polygon fill="#000" points="0 0 480 500 490 500"/><polygon fill="#001DFF" points="0 0 490 500 500 500"/><polygon fill="#001DFF" points="0 0 500 0 500 10"/><polygon fill="#000" points="0 0 500 10 500 20"/><polygon fill="#001DFF" points="0 0 500 20 500 30"/><polygon fill="#000" points="0 0 500 30 500 40"/><polygon fill="#001DFF" points="0 0 500 40 500 50"/><polygon fill="#000" points="0 0 500 50 500 60"/><polygon fill="#001DFF" points="0 0 500 60 500 70"/><polygon fill="#000" points="0 0 500 70 500 80"/><polygon fill="#001DFF" points="0 0 500 80 500 90"/><polygon fill="#000" points="0 0 500 90 500 100"/><polygon fill="#001DFF" points="0 0 500 100 500 110"/><polygon fill="#000" points="0 0 500 110 500 120"/><polygon fill="#001DFF" points="0 0 500 120 500 130"/><polygon fill="#000" points="0 0 500 130 500 140"/><polygon fill="#001DFF" points="0 0 500 140 500 150"/><polygon fill="#000" points="0 0 500 150 500 160"/><polygon fill="#001DFF" points="0 0 500 160 500 170"/><polygon fill="#000" points="0 0 500 170 500 180"/><polygon fill="#001DFF" points="0 0 500 180 500 190"/><polygon fill="#000" points="0 0 500 190 500 200"/><polygon fill="#001DFF" points="0 0 500 200 500 210"/><polygon fill="#000" points="0 0 500 210 500 220"/><polygon fill="#001DFF" points="0 0 500 220 500 230"/><polygon fill="#000" points="0 0 500 230 500 240"/><polygon fill="#001DFF" points="0 0 500 240 500 250"/><polygon fill="#000" points="0 0 500 250 500 260"/><polygon fill="#001DFF" points="0 0 500 260 500 270"/><polygon fill="#000" points="0 0 500 270 500 280"/><polygon fill="#001DFF" points="0 0 500 280 500 290"/><polygon fill="#000" points="0 0 500 290 500 300"/><polygon fill="#001DFF" points="0 0 500 300 500 310"/><polygon fill="#000" points="0 0 500 310 500 320"/><polygon fill="#001DFF" points="0 0 500 320 500 330"/><polygon fill="#000" points="0 0 500 330 500 340"/><polygon fill="#001DFF" points="0 0 500 340 500 350"/><polygon fill="#000" points="0 0 500 350 500 360"/><polygon fill="#001DFF" points="0 0 500 360 500 370"/><polygon fill="#000" points="0 0 500 370 500 380"/><polygon fill="#001DFF" points="0 0 500 380 500 390"/><polygon fill="#000" points="0 0 500 390 500 400"/><polygon fill="#001DFF" points="0 0 500 400 500 410"/><polygon fill="#000" points="0 0 500 410 500 420"/><polygon fill="#001DFF" points="0 0 500 420 500 430"/><polygon fill="#000" points="0 0 500 430 500 440"/><polygon fill="#001DFF" points="0 0 500 440 500 450"/><polygon fill="#000" points="0 0 500 450 500 460"/><polygon fill="#001DFF" points="0 0 500 460 500 470"/><polygon fill="#000" points="0 0 500 470 500 480"/><polygon fill="#001DFF" points="0 0 500 480 500 490"/><polygon fill="#000" points="0 0 500 490 500 500"/></svg>