<svg xmlns="http://www.w3.org/2000/svg" width="465" height="233" version="1.1"><polygon fill="red" stroke-width="0" points="60 25.981 45 51.962 15 51.962 0 25.981 15 0 45 0"/><polygon fill="#FF0" stroke-width="0" points="105 51.962 90 77.942 60 77.942 45 51.962 60 25.981 90 25.981"/><polygon fill="#00F" stroke-width="0" points="60 77.942 45 103.923 15 103.923 0 77.942 15 51.962 45 51.962"/><polygon fill="#0F0" stroke-width="0" points="105 103.923 90 129.904 60 129.904 45 103.923 60 77.942 90 77.942"/><polygon fill="red" stroke-width="0" points="60 129.904 45 155.885 15 155.885 0 129.904 15 103.923 45 103.923"/><polygon fill="#FF0" stroke-width="0" points="105 155.885 90 181.865 60 181.865 45 155.885 60 129.904 90 129.904"/><polygon fill="#00F" stroke-width="0" points="60 181.865 45 207.846 15 207.846 0 181.865 15 155.885 45 155.885"/><polygon fill="#0F0" stroke-width="0" points="105 207.846 90 233.827 60 233.827 45 207.846 60 181.865 90 181.865"/><polygon fill="red" stroke-width="0" points="150 25.981 135 51.962 105 51.962 90 25.981 105 0 135 0"/><polygon fill="#FF0" stroke-width="0" points="195 51.962 180 77.942 150 77.942 135 51.962 150 25.981 180 25.981"/><polygon fill="#00F" stroke-width="0" points="150 77.942 135 103.923 105 103.923 90 77.942 105 51.962 135 51.962"/><polygon fill="#0F0" stroke-width="0" points="195 103.923 180 129.904 150 129.904 135 103.923 150 77.942 180 77.942"/><polygon fill="red" stroke-width="0" points="150 129.904 135 155.885 105 155.885 90 129.904 105 103.923 135 103.923"/><polygon fill="#FF0" stroke-width="0" points="195 155.885 180 181.865 150 181.865 135 155.885 150 129.904 180 129.904"/><polygon fill="#00F" stroke-width="0" points="150 181.865 135 207.846 105 207.846 90 181.865 105 155.885 135 155.885"/><polygon fill="#0F0" stroke-width="0" points="195 207.846 180 233.827 150 233.827 135 207.846 150 181.865 180 181.865"/><polygon fill="red" stroke-width="0" points="240 25.981 225 51.962 195 51.962 180 25.981 195 0 225 0"/><polygon fill="#FF0" stroke-width="0" points="285 51.962 270 77.942 240 77.942 225 51.962 240 25.981 270 25.981"/><polygon fill="#00F" stroke-width="0" points="240 77.942 225 103.923 195 103.923 180 77.942 195 51.962 225 51.962"/><polygon fill="#0F0" stroke-width="0" points="285 103.923 270 129.904 240 129.904 225 103.923 240 77.942 270 77.942"/><polygon fill="red" stroke-width="0" points="240 129.904 225 155.885 195 155.885 180 129.904 195 103.923 225 103.923"/><polygon fill="#FF0" stroke-width="0" points="285 155.885 270 181.865 240 181.865 225 155.885 240 129.904 270 129.904"/><polygon fill="#00F" stroke-width="0" points="240 181.865 225 207.846 195 207.846 180 181.865 195 155.885 225 155.885"/><polygon fill="#0F0" stroke-width="0" points="285 207.846 270 233.827 240 233.827 225 207.846 240 181.865 270 181.865"/><polygon fill="red" stroke-width="0" points="330 25.981 315 51.962 285 51.962 270 25.981 285 0 315 0"/><polygon fill="#FF0" stroke-width="0" points="375 51.962 360 77.942 330 77.942 315 51.962 330 25.981 360 25.981"/><polygon fill="#00F" stroke-width="0" points="330 77.942 315 103.923 285 103.923 270 77.942 285 51.962 315 51.962"/><polygon fill="#0F0" stroke-width="0" points="375 103.923 360 129.904 330 129.904 315 103.923 330 77.942 360 77.942"/><polygon fill="red" stroke-width="0" points="330 129.904 315 155.885 285 155.885 270 129.904 285 103.923 315 103.923"/><polygon fill="#FF0" stroke-width="0" points="375 155.885 360 181.865 330 181.865 315 155.885 330 129.904 360 129.904"/><polygon fill="#00F" stroke-width="0" points="330 181.865 315 207.846 285 207.846 270 181.865 285 155.885 315 155.885"/><polygon fill="#0F0" stroke-width="0" points="375 207.846 360 233.827 330 233.827 315 207.846 330 181.865 360 181.865"/><polygon fill="red" stroke-width="0" points="420 25.981 405 51.962 375 51.962 360 25.981 375 0 405 0"/><polygon fill="#FF0" stroke-width="0" points="465 51.962 450 77.942 420 77.942 405 51.962 420 25.981 450 25.981"/><polygon fill="#00F" stroke-width="0" points="420 77.942 405 103.923 375 103.923 360 77.942 375 51.962 405 51.962"/><polygon fill="#0F0" stroke-width="0" points="465 103.923 450 129.904 420 129.904 405 103.923 420 77.942 450 77.942"/><polygon fill="red" stroke-width="0" points="420 129.904 405 155.885 375 155.885 360 129.904 375 103.923 405 103.923"/><polygon fill="#FF0" stroke-width="0" points="465 155.885 450 181.865 420 181.865 405 155.885 420 129.904 450 129.904"/><polygon fill="#00F" stroke-width="0" points="420 181.865 405 207.846 375 207.846 360 181.865 375 155.885 405 155.885"/><polygon fill="#0F0" stroke-width="0" points="465 207.846 450 233.827 420 233.827 405 207.846 420 181.865 450 181.865"/></svg>