<svg xmlns="http://www.w3.org/2000/svg" xmlns:xlink="http://www.w3.org/1999/xlink" id="Layer_1" width="100" height="100" x="0" y="0" enable-background="new 0 0 100 100" version="1.1" viewBox="0 0 100 100" xml:space="preserve"><polygon fill="#1865ED" points="100 50 99.901 53.14 99.606 56.267 99.114 59.369 98.429 62.434 97.553 65.451 96.489 68.406 95.241 71.289 93.815 74.088 92.216 76.791 90.451 79.389 88.526 81.871 86.448 84.227 84.227 86.448 81.871 88.526 79.389 90.451 76.791 92.216 74.088 93.815 71.289 95.241 68.406 96.489 65.451 97.553 62.434 98.429 59.369 99.114 56.267 99.606 53.14 99.901 50 100 46.86 99.901 43.733 99.606 40.631 99.114 37.566 98.429 34.549 97.553 31.594 96.489 28.711 95.241 25.912 93.815 23.209 92.216 20.611 90.451 18.129 88.526 15.773 86.448 13.552 84.227 11.474 81.871 9.549 79.389 7.784 76.791 6.185 74.088 4.759 71.289 3.511 68.406 2.447 65.451 1.571 62.434 .886 59.369 .394 56.267 .099 53.14 0 50 .099 46.86 .394 43.733 .886 40.631 1.571 37.566 2.447 34.549 3.511 31.594 4.759 28.711 6.185 25.912 7.784 23.209 9.549 20.611 11.474 18.129 13.552 15.773 15.773 13.552 18.129 11.474 20.611 9.549 23.209 7.784 25.912 6.185 28.711 4.759 31.594 3.511 34.549 2.447 37.566 1.571 40.631 .886 43.733 .394 46.86 .099 50 0 53.14 .099 56.267 .394 59.369 .886 62.434 1.571 65.451 2.447 68.406 3.511 71.289 4.759 74.088 6.185 76.791 7.784 79.389 9.549 81.871 11.474 84.227 13.552 86.448 15.773 88.526 18.129 90.451 20.611 92.216 23.209 93.815 25.912 95.241 28.711 96.489 31.594 97.553 34.549 98.429 37.566 99.114 40.631 99.606 43.733 99.901 46.86"/></svg>