<svg xmlns="http://www.w3.org/2000/svg" xmlns:xlink="http://www.w3.org/1999/xlink" id="Layer_1" width="150" height="150" x="0" y="0" enable-background="new 0 0 150 150" version="1.1" viewBox="0 0 150 150" xml:space="preserve"><polygon fill="#00FFF2" points="100 75 124.975 76.571 99.951 76.57"/><polygon fill="#FFF291" points="100 75 75 75 99.951 76.57"/><polygon fill="#00FFF2" points="99.951 76.57 124.778 79.705 99.803 78.133"/><polygon fill="#FFF291" points="99.951 76.57 75 75 99.803 78.133"/><polygon fill="#00FFF2" points="99.803 78.133 124.384 82.822 99.557 79.685"/><polygon fill="#FFF291" points="99.803 78.133 75 75 99.557 79.685"/><polygon fill="#00FFF2" points="99.557 79.685 123.796 85.907 99.215 81.217"/><polygon fill="#FFF291" points="99.557 79.685 75 75 99.215 81.217"/><polygon fill="#00FFF2" points="99.215 81.217 123.015 88.95 98.776 82.725"/><polygon fill="#FFF291" points="99.215 81.217 75 75 98.776 82.725"/><polygon fill="#00FFF2" points="98.776 82.725 122.044 91.937 98.244 84.203"/><polygon fill="#FFF291" points="98.776 82.725 75 75 98.244 84.203"/><polygon fill="#00FFF2" points="98.244 84.203 120.888 94.857 97.621 85.644"/><polygon fill="#FFF291" points="98.244 84.203 75 75 97.621 85.644"/><polygon fill="#00FFF2" points="97.621 85.644 119.55 97.7 96.908 87.044"/><polygon fill="#FFF291" points="97.621 85.644 75 75 96.908 87.044"/><polygon fill="#00FFF2" points="96.908 87.044 118.037 100.452 96.108 88.396"/><polygon fill="#FFF291" points="96.908 87.044 75 75 96.108 88.396"/><polygon fill="#00FFF2" points="96.108 88.396 116.354 103.104 95.225 89.695"/><polygon fill="#FFF291" points="96.108 88.396 75 75 95.225 89.695"/><polygon fill="#00FFF2" points="95.225 89.695 114.508 105.645 94.263 90.936"/><polygon fill="#FFF291" points="95.225 89.695 75 75 94.263 90.936"/><polygon fill="#00FFF2" points="94.263 90.936 112.506 108.066 93.224 92.114"/><polygon fill="#FFF291" points="94.263 90.936 75 75 93.224 92.114"/><polygon fill="#00FFF2" points="93.224 92.114 110.355 110.355 92.114 93.224"/><polygon fill="#FFF291" points="93.224 92.114 75 75 92.114 93.224"/><polygon fill="#00FFF2" points="92.114 93.224 108.066 112.506 90.936 94.263"/><polygon fill="#FFF291" points="92.114 93.224 75 75 90.936 94.263"/><polygon fill="#00FFF2" points="90.936 94.263 105.645 114.508 89.695 95.225"/><polygon fill="#FFF291" points="90.936 94.263 75 75 89.695 95.225"/><polygon fill="#00FFF2" points="89.695 95.225 103.104 116.354 88.396 96.108"/><polygon fill="#FFF291" points="89.695 95.225 75 75 88.396 96.108"/><polygon fill="#00FFF2" points="88.396 96.108 100.452 118.037 87.044 96.908"/><polygon fill="#FFF291" points="88.396 96.108 75 75 87.044 96.908"/><polygon fill="#00FFF2" points="87.044 96.908 97.7 119.55 85.644 97.621"/><polygon fill="#FFF291" points="87.044 96.908 75 75 85.644 97.621"/><polygon fill="#00FFF2" points="85.644 97.621 94.857 120.888 84.203 98.244"/><polygon fill="#FFF291" points="85.644 97.621 75 75 84.203 98.244"/><polygon fill="#00FFF2" points="84.203 98.244 91.937 122.044 82.725 98.776"/><polygon fill="#FFF291" points="84.203 98.244 75 75 82.725 98.776"/><polygon fill="#00FFF2" points="82.725 98.776 88.95 123.015 81.217 99.215"/><polygon fill="#FFF291" points="82.725 98.776 75 75 81.217 99.215"/><polygon fill="#00FFF2" points="81.217 99.215 85.907 123.796 79.685 99.557"/><polygon fill="#FFF291" points="81.217 99.215 75 75 79.685 99.557"/><polygon fill="#00FFF2" points="79.685 99.557 82.822 124.384 78.133 99.803"/><polygon fill="#FFF291" points="79.685 99.557 75 75 78.133 99.803"/><polygon fill="#00FFF2" points="78.133 99.803 79.705 124.778 76.57 99.951"/><polygon fill="#FFF291" points="78.133 99.803 75 75 76.57 99.951"/><polygon fill="#00FFF2" points="76.57 99.951 76.571 124.975 75 100"/><polygon fill="#FFF291" points="76.57 99.951 75 75 75 100"/><polygon fill="#00FFF2" points="75 100 73.429 124.975 73.43 99.951"/><polygon fill="#FFF291" points="75 100 75 75 73.43 99.951"/><polygon fill="#00FFF2" points="73.43 99.951 70.295 124.778 71.867 99.803"/><polygon fill="#FFF291" points="73.43 99.951 75 75 71.867 99.803"/><polygon fill="#00FFF2" points="71.867 99.803 67.178 124.384 70.315 99.557"/><polygon fill="#FFF291" points="71.867 99.803 75 75 70.315 99.557"/><polygon fill="#00FFF2" points="70.315 99.557 64.093 123.796 68.783 99.215"/><polygon fill="#FFF291" points="70.315 99.557 75 75 68.783 99.215"/><polygon fill="#00FFF2" points="68.783 99.215 61.05 123.015 67.275 98.776"/><polygon fill="#FFF291" points="68.783 99.215 75 75 67.275 98.776"/><polygon fill="#00FFF2" points="67.275 98.776 58.063 122.044 65.797 98.244"/><polygon fill="#FFF291" points="67.275 98.776 75 75 65.797 98.244"/><polygon fill="#00FFF2" points="65.797 98.244 55.143 120.888 64.356 97.621"/><polygon fill="#FFF291" points="65.797 98.244 75 75 64.356 97.621"/><polygon fill="#00FFF2" points="64.356 97.621 52.3 119.55 62.956 96.908"/><polygon fill="#FFF291" points="64.356 97.621 75 75 62.956 96.908"/><polygon fill="#00FFF2" points="62.956 96.908 49.548 118.037 61.604 96.108"/><polygon fill="#FFF291" points="62.956 96.908 75 75 61.604 96.108"/><polygon fill="#00FFF2" points="61.604 96.108 46.896 116.354 60.305 95.225"/><polygon fill="#FFF291" points="61.604 96.108 75 75 60.305 95.225"/><polygon fill="#00FFF2" points="60.305 95.225 44.355 114.508 59.064 94.263"/><polygon fill="#FFF291" points="60.305 95.225 75 75 59.064 94.263"/><polygon fill="#00FFF2" points="59.064 94.263 41.934 112.506 57.886 93.224"/><polygon fill="#FFF291" points="59.064 94.263 75 75 57.886 93.224"/><polygon fill="#00FFF2" points="57.886 93.224 39.645 110.355 56.776 92.114"/><polygon fill="#FFF291" points="57.886 93.224 75 75 56.776 92.114"/><polygon fill="#00FFF2" points="56.776 92.114 37.494 108.066 55.737 90.936"/><polygon fill="#FFF291" points="56.776 92.114 75 75 55.737 90.936"/><polygon fill="#00FFF2" points="55.737 90.936 35.492 105.645 54.775 89.695"/><polygon fill="#FFF291" points="55.737 90.936 75 75 54.775 89.695"/><polygon fill="#00FFF2" points="54.775 89.695 33.646 103.104 53.892 88.396"/><polygon fill="#FFF291" points="54.775 89.695 75 75 53.892 88.396"/><polygon fill="#00FFF2" points="53.892 88.396 31.963 100.452 53.092 87.044"/><polygon fill="#FFF291" points="53.892 88.396 75 75 53.092 87.044"/><polygon fill="#00FFF2" points="53.092 87.044 30.45 97.7 52.379 85.644"/><polygon fill="#FFF291" points="53.092 87.044 75 75 52.379 85.644"/><polygon fill="#00FFF2" points="52.379 85.644 29.112 94.857 51.756 84.203"/><polygon fill="#FFF291" points="52.379 85.644 75 75 51.756 84.203"/><polygon fill="#00FFF2" points="51.756 84.203 27.956 91.937 51.224 82.725"/><polygon fill="#FFF291" points="51.756 84.203 75 75 51.224 82.725"/><polygon fill="#00FFF2" points="51.224 82.725 26.985 88.95 50.785 81.217"/><polygon fill="#FFF291" points="51.224 82.725 75 75 50.785 81.217"/><polygon fill="#00FFF2" points="50.785 81.217 26.204 85.907 50.443 79.685"/><polygon fill="#FFF291" points="50.785 81.217 75 75 50.443 79.685"/><polygon fill="#00FFF2" points="50.443 79.685 25.616 82.822 50.197 78.133"/><polygon fill="#FFF291" points="50.443 79.685 75 75 50.197 78.133"/><polygon fill="#00FFF2" points="50.197 78.133 25.222 79.705 50.049 76.57"/><polygon fill="#FFF291" points="50.197 78.133 75 75 50.049 76.57"/><polygon fill="#00FFF2" points="50.049 76.57 25.025 76.571 50 75"/><polygon fill="#FFF291" points="50.049 76.57 75 75 50 75"/><polygon fill="#00FFF2" points="50 75 25.025 73.429 50.049 73.43"/><polygon fill="#FFF291" points="50 75 75 75 50.049 73.43"/><polygon fill="#00FFF2" points="50.049 73.43 25.222 70.295 50.197 71.867"/><polygon fill="#FFF291" points="50.049 73.43 75 75 50.197 71.867"/><polygon fill="#00FFF2" points="50.197 71.867 25.616 67.178 50.443 70.315"/><polygon fill="#FFF291" points="50.197 71.867 75 75 50.443 70.315"/><polygon fill="#00FFF2" points="50.443 70.315 26.204 64.093 50.785 68.783"/><polygon fill="#FFF291" points="50.443 70.315 75 75 50.785 68.783"/><polygon fill="#00FFF2" points="50.785 68.783 26.985 61.05 51.224 67.275"/><polygon fill="#FFF291" points="50.785 68.783 75 75 51.224 67.275"/><polygon fill="#00FFF2" points="51.224 67.275 27.956 58.063 51.756 65.797"/><polygon fill="#FFF291" points="51.224 67.275 75 75 51.756 65.797"/><polygon fill="#00FFF2" points="51.756 65.797 29.112 55.143 52.379 64.356"/><polygon fill="#FFF291" points="51.756 65.797 75 75 52.379 64.356"/><polygon fill="#00FFF2" points="52.379 64.356 30.45 52.3 53.092 62.956"/><polygon fill="#FFF291" points="52.379 64.356 75 75 53.092 62.956"/><polygon fill="#00FFF2" points="53.092 62.956 31.963 49.548 53.892 61.604"/><polygon fill="#FFF291" points="53.092 62.956 75 75 53.892 61.604"/><polygon fill="#00FFF2" points="53.892 61.604 33.646 46.896 54.775 60.305"/><polygon fill="#FFF291" points="53.892 61.604 75 75 54.775 60.305"/><polygon fill="#00FFF2" points="54.775 60.305 35.492 44.355 55.737 59.064"/><polygon fill="#FFF291" points="54.775 60.305 75 75 55.737 59.064"/><polygon fill="#00FFF2" points="55.737 59.064 37.494 41.934 56.776 57.886"/><polygon fill="#FFF291" points="55.737 59.064 75 75 56.776 57.886"/><polygon fill="#00FFF2" points="56.776 57.886 39.645 39.645 57.886 56.776"/><polygon fill="#FFF291" points="56.776 57.886 75 75 57.886 56.776"/><polygon fill="#00FFF2" points="57.886 56.776 41.934 37.494 59.064 55.737"/><polygon fill="#FFF291" points="57.886 56.776 75 75 59.064 55.737"/><polygon fill="#00FFF2" points="59.064 55.737 44.355 35.492 60.305 54.775"/><polygon fill="#FFF291" points="59.064 55.737 75 75 60.305 54.775"/><polygon fill="#00FFF2" points="60.305 54.775 46.896 33.646 61.604 53.892"/><polygon fill="#FFF291" points="60.305 54.775 75 75 61.604 53.892"/><polygon fill="#00FFF2" points="61.604 53.892 49.548 31.963 62.956 53.092"/><polygon fill="#FFF291" points="61.604 53.892 75 75 62.956 53.092"/><polygon fill="#00FFF2" points="62.956 53.092 52.3 30.45 64.356 52.379"/><polygon fill="#FFF291" points="62.956 53.092 75 75 64.356 52.379"/><polygon fill="#00FFF2" points="64.356 52.379 55.143 29.112 65.797 51.756"/><polygon fill="#FFF291" points="64.356 52.379 75 75 65.797 51.756"/><polygon fill="#00FFF2" points="65.797 51.756 58.063 27.956 67.275 51.224"/><polygon fill="#FFF291" points="65.797 51.756 75 75 67.275 51.224"/><polygon fill="#00FFF2" points="67.275 51.224 61.05 26.985 68.783 50.785"/><polygon fill="#FFF291" points="67.275 51.224 75 75 68.783 50.785"/><polygon fill="#00FFF2" points="68.783 50.785 64.093 26.204 70.315 50.443"/><polygon fill="#FFF291" points="68.783 50.785 75 75 70.315 50.443"/><polygon fill="#00FFF2" points="70.315 50.443 67.178 25.616 71.867 50.197"/><polygon fill="#FFF291" points="70.315 50.443 75 75 71.867 50.197"/><polygon fill="#00FFF2" points="71.867 50.197 70.295 25.222 73.43 50.049"/><polygon fill="#FFF291" points="71.867 50.197 75 75 73.43 50.049"/><polygon fill="#00FFF2" points="73.43 50.049 73.429 25.025 75 50"/><polygon fill="#FFF291" points="73.43 50.049 75 75 75 50"/><polygon fill="#00FFF2" points="75 50 76.571 25.025 76.57 50.049"/><polygon fill="#FFF291" points="75 50 75 75 76.57 50.049"/><polygon fill="#00FFF2" points="76.57 50.049 79.705 25.222 78.133 50.197"/><polygon fill="#FFF291" points="76.57 50.049 75 75 78.133 50.197"/><polygon fill="#00FFF2" points="78.133 50.197 82.822 25.616 79.685 50.443"/><polygon fill="#FFF291" points="78.133 50.197 75 75 79.685 50.443"/><polygon fill="#00FFF2" points="79.685 50.443 85.907 26.204 81.217 50.785"/><polygon fill="#FFF291" points="79.685 50.443 75 75 81.217 50.785"/><polygon fill="#00FFF2" points="81.217 50.785 88.95 26.985 82.725 51.224"/><polygon fill="#FFF291" points="81.217 50.785 75 75 82.725 51.224"/><polygon fill="#00FFF2" points="82.725 51.224 91.937 27.956 84.203 51.756"/><polygon fill="#FFF291" points="82.725 51.224 75 75 84.203 51.756"/><polygon fill="#00FFF2" points="84.203 51.756 94.857 29.112 85.644 52.379"/><polygon fill="#FFF291" points="84.203 51.756 75 75 85.644 52.379"/><polygon fill="#00FFF2" points="85.644 52.379 97.7 30.45 87.044 53.092"/><polygon fill="#FFF291" points="85.644 52.379 75 75 87.044 53.092"/><polygon fill="#00FFF2" points="87.044 53.092 100.452 31.963 88.396 53.892"/><polygon fill="#FFF291" points="87.044 53.092 75 75 88.396 53.892"/><polygon fill="#00FFF2" points="88.396 53.892 103.104 33.646 89.695 54.775"/><polygon fill="#FFF291" points="88.396 53.892 75 75 89.695 54.775"/><polygon fill="#00FFF2" points="89.695 54.775 105.645 35.492 90.936 55.737"/><polygon fill="#FFF291" points="89.695 54.775 75 75 90.936 55.737"/><polygon fill="#00FFF2" points="90.936 55.737 108.066 37.494 92.114 56.776"/><polygon fill="#FFF291" points="90.936 55.737 75 75 92.114 56.776"/><polygon fill="#00FFF2" points="92.114 56.776 110.355 39.645 93.224 57.886"/><polygon fill="#FFF291" points="92.114 56.776 75 75 93.224 57.886"/><polygon fill="#00FFF2" points="93.224 57.886 112.506 41.934 94.263 59.064"/><polygon fill="#FFF291" points="93.224 57.886 75 75 94.263 59.064"/><polygon fill="#00FFF2" points="94.263 59.064 114.508 44.355 95.225 60.305"/><polygon fill="#FFF291" points="94.263 59.064 75 75 95.225 60.305"/><polygon fill="#00FFF2" points="95.225 60.305 116.354 46.896 96.108 61.604"/><polygon fill="#FFF291" points="95.225 60.305 75 75 96.108 61.604"/><polygon fill="#00FFF2" points="96.108 61.604 118.037 49.548 96.908 62.956"/><polygon fill="#FFF291" points="96.108 61.604 75 75 96.908 62.956"/><polygon fill="#00FFF2" points="96.908 62.956 119.55 52.3 97.621 64.356"/><polygon fill="#FFF291" points="96.908 62.956 75 75 97.621 64.356"/><polygon fill="#00FFF2" points="97.621 64.356 120.888 55.143 98.244 65.797"/><polygon fill="#FFF291" points="97.621 64.356 75 75 98.244 65.797"/><polygon fill="#00FFF2" points="98.244 65.797 122.044 58.063 98.776 67.275"/><polygon fill="#FFF291" points="98.244 65.797 75 75 98.776 67.275"/><polygon fill="#00FFF2" points="98.776 67.275 123.015 61.05 99.215 68.783"/><polygon fill="#FFF291" points="98.776 67.275 75 75 99.215 68.783"/><polygon fill="#00FFF2" points="99.215 68.783 123.796 64.093 99.557 70.315"/><polygon fill="#FFF291" points="99.215 68.783 75 75 99.557 70.315"/><polygon fill="#00FFF2" points="99.557 70.315 124.384 67.178 99.803 71.867"/><polygon fill="#FFF291" points="99.557 70.315 75 75 99.803 71.867"/><polygon fill="#00FFF2" points="99.803 71.867 124.778 70.295 99.951 73.43"/><polygon fill="#FFF291" points="99.803 71.867 75 75 99.951 73.43"/><polygon fill="#00FFF2" points="99.951 73.43 124.975 73.429 100 75"/><polygon fill="#FFF291" points="99.951 73.43 75 75 100 75"/><polygon fill="#FF8168" points="124.975 76.571 99.951 76.57 124.778 79.705"/><polygon fill="#FF1900" points="124.975 76.571 137.377 78.924 124.778 79.705"/><polygon fill="#FF8168" points="124.778 79.705 99.803 78.133 124.384 82.822"/><polygon fill="#FF1900" points="124.778 79.705 137.007 82.833 124.384 82.822"/><polygon fill="#FF8168" points="124.384 82.822 99.557 79.685 123.796 85.907"/><polygon fill="#FF1900" points="124.384 82.822 136.393 86.711 123.796 85.907"/><polygon fill="#FF8168" points="123.796 85.907 99.215 81.217 123.015 88.95"/><polygon fill="#FF1900" points="123.796 85.907 135.536 90.543 123.015 88.95"/><polygon fill="#FF8168" points="123.015 88.95 98.776 82.725 122.044 91.937"/><polygon fill="#FF1900" points="123.015 88.95 134.441 94.314 122.044 91.937"/><polygon fill="#FF8168" points="122.044 91.937 98.244 84.203 120.888 94.857"/><polygon fill="#FF1900" points="122.044 91.937 133.111 98.008 120.888 94.857"/><polygon fill="#FF8168" points="120.888 94.857 97.621 85.644 119.55 97.7"/><polygon fill="#FF1900" points="120.888 94.857 131.552 101.611 119.55 97.7"/><polygon fill="#FF8168" points="119.55 97.7 96.908 87.044 118.037 100.452"/><polygon fill="#FF1900" points="119.55 97.7 129.769 105.11 118.037 100.452"/><polygon fill="#FF8168" points="118.037 100.452 96.108 88.396 116.354 103.104"/><polygon fill="#FF1900" points="118.037 100.452 127.77 108.489 116.354 103.104"/><polygon fill="#FF8168" points="116.354 103.104 95.225 89.695 114.508 105.645"/><polygon fill="#FF1900" points="116.354 103.104 125.564 111.737 114.508 105.645"/><polygon fill="#FF8168" points="114.508 105.645 94.263 90.936 112.506 108.066"/><polygon fill="#FF1900" points="114.508 105.645 123.157 114.839 112.506 108.066"/><polygon fill="#FF8168" points="112.506 108.066 93.224 92.114 110.355 110.355"/><polygon fill="#FF1900" points="112.506 108.066 120.561 117.784 110.355 110.355"/><polygon fill="#FF8168" points="110.355 110.355 92.114 93.224 108.066 112.506"/><polygon fill="#FF1900" points="110.355 110.355 117.784 120.561 108.066 112.506"/><polygon fill="#FF8168" points="108.066 112.506 90.936 94.263 105.645 114.508"/><polygon fill="#FF1900" points="108.066 112.506 114.839 123.157 105.645 114.508"/><polygon fill="#FF8168" points="105.645 114.508 89.695 95.225 103.104 116.354"/><polygon fill="#FF1900" points="105.645 114.508 111.737 125.564 103.104 116.354"/><polygon fill="#FF8168" points="103.104 116.354 88.396 96.108 100.452 118.037"/><polygon fill="#FF1900" points="103.104 116.354 108.489 127.77 100.452 118.037"/><polygon fill="#FF8168" points="100.452 118.037 87.044 96.908 97.7 119.55"/><polygon fill="#FF1900" points="100.452 118.037 105.11 129.769 97.7 119.55"/><polygon fill="#FF8168" points="97.7 119.55 85.644 97.621 94.857 120.888"/><polygon fill="#FF1900" points="97.7 119.55 101.611 131.552 94.857 120.888"/><polygon fill="#FF8168" points="94.857 120.888 84.203 98.244 91.937 122.044"/><polygon fill="#FF1900" points="94.857 120.888 98.008 133.111 91.937 122.044"/><polygon fill="#FF8168" points="91.937 122.044 82.725 98.776 88.95 123.015"/><polygon fill="#FF1900" points="91.937 122.044 94.314 134.441 88.95 123.015"/><polygon fill="#FF8168" points="88.95 123.015 81.217 99.215 85.907 123.796"/><polygon fill="#FF1900" points="88.95 123.015 90.543 135.536 85.907 123.796"/><polygon fill="#FF8168" points="85.907 123.796 79.685 99.557 82.822 124.384"/><polygon fill="#FF1900" points="85.907 123.796 86.711 136.393 82.822 124.384"/><polygon fill="#FF8168" points="82.822 124.384 78.133 99.803 79.705 124.778"/><polygon fill="#FF1900" points="82.822 124.384 82.833 137.007 79.705 124.778"/><polygon fill="#FF8168" points="79.705 124.778 76.57 99.951 76.571 124.975"/><polygon fill="#FF1900" points="79.705 124.778 78.924 137.377 76.571 124.975"/><polygon fill="#FF8168" points="76.571 124.975 75 100 73.429 124.975"/><polygon fill="#FF1900" points="76.571 124.975 75 137.5 73.429 124.975"/><polygon fill="#FF8168" points="73.429 124.975 73.43 99.951 70.295 124.778"/><polygon fill="#FF1900" points="73.429 124.975 71.076 137.377 70.295 124.778"/><polygon fill="#FF8168" points="70.295 124.778 71.867 99.803 67.178 124.384"/><polygon fill="#FF1900" points="70.295 124.778 67.167 137.007 67.178 124.384"/><polygon fill="#FF8168" points="67.178 124.384 70.315 99.557 64.093 123.796"/><polygon fill="#FF1900" points="67.178 124.384 63.289 136.393 64.093 123.796"/><polygon fill="#FF8168" points="64.093 123.796 68.783 99.215 61.05 123.015"/><polygon fill="#FF1900" points="64.093 123.796 59.457 135.536 61.05 123.015"/><polygon fill="#FF8168" points="61.05 123.015 67.275 98.776 58.063 122.044"/><polygon fill="#FF1900" points="61.05 123.015 55.686 134.441 58.063 122.044"/><polygon fill="#FF8168" points="58.063 122.044 65.797 98.244 55.143 120.888"/><polygon fill="#FF1900" points="58.063 122.044 51.992 133.111 55.143 120.888"/><polygon fill="#FF8168" points="55.143 120.888 64.356 97.621 52.3 119.55"/><polygon fill="#FF1900" points="55.143 120.888 48.389 131.552 52.3 119.55"/><polygon fill="#FF8168" points="52.3 119.55 62.956 96.908 49.548 118.037"/><polygon fill="#FF1900" points="52.3 119.55 44.89 129.769 49.548 118.037"/><polygon fill="#FF8168" points="49.548 118.037 61.604 96.108 46.896 116.354"/><polygon fill="#FF1900" points="49.548 118.037 41.511 127.77 46.896 116.354"/><polygon fill="#FF8168" points="46.896 116.354 60.305 95.225 44.355 114.508"/><polygon fill="#FF1900" points="46.896 116.354 38.263 125.564 44.355 114.508"/><polygon fill="#FF8168" points="44.355 114.508 59.064 94.263 41.934 112.506"/><polygon fill="#FF1900" points="44.355 114.508 35.161 123.157 41.934 112.506"/><polygon fill="#FF8168" points="41.934 112.506 57.886 93.224 39.645 110.355"/><polygon fill="#FF1900" points="41.934 112.506 32.216 120.561 39.645 110.355"/><polygon fill="#FF8168" points="39.645 110.355 56.776 92.114 37.494 108.066"/><polygon fill="#FF1900" points="39.645 110.355 29.439 117.784 37.494 108.066"/><polygon fill="#FF8168" points="37.494 108.066 55.737 90.936 35.492 105.645"/><polygon fill="#FF1900" points="37.494 108.066 26.843 114.839 35.492 105.645"/><polygon fill="#FF8168" points="35.492 105.645 54.775 89.695 33.646 103.104"/><polygon fill="#FF1900" points="35.492 105.645 24.436 111.737 33.646 103.104"/><polygon fill="#FF8168" points="33.646 103.104 53.892 88.396 31.963 100.452"/><polygon fill="#FF1900" points="33.646 103.104 22.23 108.489 31.963 100.452"/><polygon fill="#FF8168" points="31.963 100.452 53.092 87.044 30.45 97.7"/><polygon fill="#FF1900" points="31.963 100.452 20.231 105.11 30.45 97.7"/><polygon fill="#FF8168" points="30.45 97.7 52.379 85.644 29.112 94.857"/><polygon fill="#FF1900" points="30.45 97.7 18.448 101.611 29.112 94.857"/><polygon fill="#FF8168" points="29.112 94.857 51.756 84.203 27.956 91.937"/><polygon fill="#FF1900" points="29.112 94.857 16.889 98.008 27.956 91.937"/><polygon fill="#FF8168" points="27.956 91.937 51.224 82.725 26.985 88.95"/><polygon fill="#FF1900" points="27.956 91.937 15.559 94.314 26.985 88.95"/><polygon fill="#FF8168" points="26.985 88.95 50.785 81.217 26.204 85.907"/><polygon fill="#FF1900" points="26.985 88.95 14.464 90.543 26.204 85.907"/><polygon fill="#FF8168" points="26.204 85.907 50.443 79.685 25.616 82.822"/><polygon fill="#FF1900" points="26.204 85.907 13.607 86.711 25.616 82.822"/><polygon fill="#FF8168" points="25.616 82.822 50.197 78.133 25.222 79.705"/><polygon fill="#FF1900" points="25.616 82.822 12.993 82.833 25.222 79.705"/><polygon fill="#FF8168" points="25.222 79.705 50.049 76.57 25.025 76.571"/><polygon fill="#FF1900" points="25.222 79.705 12.623 78.924 25.025 76.571"/><polygon fill="#FF8168" points="25.025 76.571 50 75 25.025 73.429"/><polygon fill="#FF1900" points="25.025 76.571 12.5 75 25.025 73.429"/><polygon fill="#FF8168" points="25.025 73.429 50.049 73.43 25.222 70.295"/><polygon fill="#FF1900" points="25.025 73.429 12.623 71.076 25.222 70.295"/><polygon fill="#FF8168" points="25.222 70.295 50.197 71.867 25.616 67.178"/><polygon fill="#FF1900" points="25.222 70.295 12.993 67.167 25.616 67.178"/><polygon fill="#FF8168" points="25.616 67.178 50.443 70.315 26.204 64.093"/><polygon fill="#FF1900" points="25.616 67.178 13.607 63.289 26.204 64.093"/><polygon fill="#FF8168" points="26.204 64.093 50.785 68.783 26.985 61.05"/><polygon fill="#FF1900" points="26.204 64.093 14.464 59.457 26.985 61.05"/><polygon fill="#FF8168" points="26.985 61.05 51.224 67.275 27.956 58.063"/><polygon fill="#FF1900" points="26.985 61.05 15.559 55.686 27.956 58.063"/><polygon fill="#FF8168" points="27.956 58.063 51.756 65.797 29.112 55.143"/><polygon fill="#FF1900" points="27.956 58.063 16.889 51.992 29.112 55.143"/><polygon fill="#FF8168" points="29.112 55.143 52.379 64.356 30.45 52.3"/><polygon fill="#FF1900" points="29.112 55.143 18.448 48.389 30.45 52.3"/><polygon fill="#FF8168" points="30.45 52.3 53.092 62.956 31.963 49.548"/><polygon fill="#FF1900" points="30.45 52.3 20.231 44.89 31.963 49.548"/><polygon fill="#FF8168" points="31.963 49.548 53.892 61.604 33.646 46.896"/><polygon fill="#FF1900" points="31.963 49.548 22.23 41.511 33.646 46.896"/><polygon fill="#FF8168" points="33.646 46.896 54.775 60.305 35.492 44.355"/><polygon fill="#FF1900" points="33.646 46.896 24.436 38.263 35.492 44.355"/><polygon fill="#FF8168" points="35.492 44.355 55.737 59.064 37.494 41.934"/><polygon fill="#FF1900" points="35.492 44.355 26.843 35.161 37.494 41.934"/><polygon fill="#FF8168" points="37.494 41.934 56.776 57.886 39.645 39.645"/><polygon fill="#FF1900" points="37.494 41.934 29.439 32.216 39.645 39.645"/><polygon fill="#FF8168" points="39.645 39.645 57.886 56.776 41.934 37.494"/><polygon fill="#FF1900" points="39.645 39.645 32.216 29.439 41.934 37.494"/><polygon fill="#FF8168" points="41.934 37.494 59.064 55.737 44.355 35.492"/><polygon fill="#FF1900" points="41.934 37.494 35.161 26.843 44.355 35.492"/><polygon fill="#FF8168" points="44.355 35.492 60.305 54.775 46.896 33.646"/><polygon fill="#FF1900" points="44.355 35.492 38.263 24.436 46.896 33.646"/><polygon fill="#FF8168" points="46.896 33.646 61.604 53.892 49.548 31.963"/><polygon fill="#FF1900" points="46.896 33.646 41.511 22.23 49.548 31.963"/><polygon fill="#FF8168" points="49.548 31.963 62.956 53.092 52.3 30.45"/><polygon fill="#FF1900" points="49.548 31.963 44.89 20.231 52.3 30.45"/><polygon fill="#FF8168" points="52.3 30.45 64.356 52.379 55.143 29.112"/><polygon fill="#FF1900" points="52.3 30.45 48.389 18.448 55.143 29.112"/><polygon fill="#FF8168" points="55.143 29.112 65.797 51.756 58.063 27.956"/><polygon fill="#FF1900" points="55.143 29.112 51.992 16.889 58.063 27.956"/><polygon fill="#FF8168" points="58.063 27.956 67.275 51.224 61.05 26.985"/><polygon fill="#FF1900" points="58.063 27.956 55.686 15.559 61.05 26.985"/><polygon fill="#FF8168" points="61.05 26.985 68.783 50.785 64.093 26.204"/><polygon fill="#FF1900" points="61.05 26.985 59.457 14.464 64.093 26.204"/><polygon fill="#FF8168" points="64.093 26.204 70.315 50.443 67.178 25.616"/><polygon fill="#FF1900" points="64.093 26.204 63.289 13.607 67.178 25.616"/><polygon fill="#FF8168" points="67.178 25.616 71.867 50.197 70.295 25.222"/><polygon fill="#FF1900" points="67.178 25.616 67.167 12.993 70.295 25.222"/><polygon fill="#FF8168" points="70.295 25.222 73.43 50.049 73.429 25.025"/><polygon fill="#FF1900" points="70.295 25.222 71.076 12.623 73.429 25.025"/><polygon fill="#FF8168" points="73.429 25.025 75 50 76.571 25.025"/><polygon fill="#FF1900" points="73.429 25.025 75 12.5 76.571 25.025"/><polygon fill="#FF8168" points="76.571 25.025 76.57 50.049 79.705 25.222"/><polygon fill="#FF1900" points="76.571 25.025 78.924 12.623 79.705 25.222"/><polygon fill="#FF8168" points="79.705 25.222 78.133 50.197 82.822 25.616"/><polygon fill="#FF1900" points="79.705 25.222 82.833 12.993 82.822 25.616"/><polygon fill="#FF8168" points="82.822 25.616 79.685 50.443 85.907 26.204"/><polygon fill="#FF1900" points="82.822 25.616 86.711 13.607 85.907 26.204"/><polygon fill="#FF8168" points="85.907 26.204 81.217 50.785 88.95 26.985"/><polygon fill="#FF1900" points="85.907 26.204 90.543 14.464 88.95 26.985"/><polygon fill="#FF8168" points="88.95 26.985 82.725 51.224 91.937 27.956"/><polygon fill="#FF1900" points="88.95 26.985 94.314 15.559 91.937 27.956"/><polygon fill="#FF8168" points="91.937 27.956 84.203 51.756 94.857 29.112"/><polygon fill="#FF1900" points="91.937 27.956 98.008 16.889 94.857 29.112"/><polygon fill="#FF8168" points="94.857 29.112 85.644 52.379 97.7 30.45"/><polygon fill="#FF1900" points="94.857 29.112 101.611 18.448 97.7 30.45"/><polygon fill="#FF8168" points="97.7 30.45 87.044 53.092 100.452 31.963"/><polygon fill="#FF1900" points="97.7 30.45 105.11 20.231 100.452 31.963"/><polygon fill="#FF8168" points="100.452 31.963 88.396 53.892 103.104 33.646"/><polygon fill="#FF1900" points="100.452 31.963 108.489 22.23 103.104 33.646"/><polygon fill="#FF8168" points="103.104 33.646 89.695 54.775 105.645 35.492"/><polygon fill="#FF1900" points="103.104 33.646 111.737 24.436 105.645 35.492"/><polygon fill="#FF8168" points="105.645 35.492 90.936 55.737 108.066 37.494"/><polygon fill="#FF1900" points="105.645 35.492 114.839 26.843 108.066 37.494"/><polygon fill="#FF8168" points="108.066 37.494 92.114 56.776 110.355 39.645"/><polygon fill="#FF1900" points="108.066 37.494 117.784 29.439 110.355 39.645"/><polygon fill="#FF8168" points="110.355 39.645 93.224 57.886 112.506 41.934"/><polygon fill="#FF1900" points="110.355 39.645 120.561 32.216 112.506 41.934"/><polygon fill="#FF8168" points="112.506 41.934 94.263 59.064 114.508 44.355"/><polygon fill="#FF1900" points="112.506 41.934 123.157 35.161 114.508 44.355"/><polygon fill="#FF8168" points="114.508 44.355 95.225 60.305 116.354 46.896"/><polygon fill="#FF1900" points="114.508 44.355 125.564 38.263 116.354 46.896"/><polygon fill="#FF8168" points="116.354 46.896 96.108 61.604 118.037 49.548"/><polygon fill="#FF1900" points="116.354 46.896 127.77 41.511 118.037 49.548"/><polygon fill="#FF8168" points="118.037 49.548 96.908 62.956 119.55 52.3"/><polygon fill="#FF1900" points="118.037 49.548 129.769 44.89 119.55 52.3"/><polygon fill="#FF8168" points="119.55 52.3 97.621 64.356 120.888 55.143"/><polygon fill="#FF1900" points="119.55 52.3 131.552 48.389 120.888 55.143"/><polygon fill="#FF8168" points="120.888 55.143 98.244 65.797 122.044 58.063"/><polygon fill="#FF1900" points="120.888 55.143 133.111 51.992 122.044 58.063"/><polygon fill="#FF8168" points="122.044 58.063 98.776 67.275 123.015 61.05"/><polygon fill="#FF1900" points="122.044 58.063 134.441 55.686 123.015 61.05"/><polygon fill="#FF8168" points="123.015 61.05 99.215 68.783 123.796 64.093"/><polygon fill="#FF1900" points="123.015 61.05 135.536 59.457 123.796 64.093"/><polygon fill="#FF8168" points="123.796 64.093 99.557 70.315 124.384 67.178"/><polygon fill="#FF1900" points="123.796 64.093 136.393 63.289 124.384 67.178"/><polygon fill="#FF8168" points="124.384 67.178 99.803 71.867 124.778 70.295"/><polygon fill="#FF1900" points="124.384 67.178 137.007 67.167 124.778 70.295"/><polygon fill="#FF8168" points="124.778 70.295 99.951 73.43 124.975 73.429"/><polygon fill="#FF1900" points="124.778 70.295 137.377 71.076 124.975 73.429"/><polygon fill="#FF8168" points="124.975 73.429 100 75 124.975 76.571"/><polygon fill="#FF1900" points="124.975 73.429 137.5 75 124.975 76.571"/></svg>