<svg width="800" height="600"><rect width="800" height="600" x="0" y="0" fill="#D19773" stroke="#D19773" stroke-opacity=".1"/><polygon fill="#FADFAA" stroke="#D19773" stroke-opacity=".1" points="392 85 380 128 339 98"/><polygon fill="#EABA8C" stroke="#D19773" stroke-opacity=".1" points="392 85 380 128 412 111"/><polygon fill="#FAD398" stroke="#D19773" stroke-opacity=".1" points="339 98 380 128 340 140"/><polygon fill="#DFA387" stroke="#D19773" stroke-opacity=".1" points="339 98 340 140 309 142"/><polygon fill="#F9D8AD" stroke="#D19773" stroke-opacity=".1" points="339 98 309 142 286 133"/><polygon fill="#DBB08E" stroke="#D19773" stroke-opacity=".1" points="392 85 412 111 443 101"/><polygon fill="#D59F7D" stroke="#D19773" stroke-opacity=".1" points="443 101 412 111 434 126"/><polygon fill="#FACC91" stroke="#D19773" stroke-opacity=".1" points="443 101 434 126 475 122"/><polygon fill="#CE8670" stroke="#D19773" stroke-opacity=".1" points="412 111 380 128 402 132"/><polygon fill="#BC716C" stroke="#D19773" stroke-opacity=".1" points="412 111 402 132 418 142"/><polygon fill="#BC716C" stroke="#D19773" stroke-opacity=".1" points="309 142 340 140 309 185"/><polygon fill="#D1806D" stroke="#D19773" stroke-opacity=".1" points="412 111 434 126 418 142"/><polygon fill="#F8DC9B" stroke="#D19773" stroke-opacity=".1" points="434 126 475 122 462 137"/><polygon fill="#FAD295" stroke="#D19773" stroke-opacity=".1" points="475 122 462 137 509 139"/><polygon fill="#DC8C6B" stroke="#D19773" stroke-opacity=".1" points="434 126 462 137 425 155"/><polygon fill="#EC9B6C" stroke="#D19773" stroke-opacity=".1" points="434 126 425 155 418 142"/><polygon fill="#E49C76" stroke="#D19773" stroke-opacity=".1" points="380 128 402 132 369 156"/><polygon fill="#DD8D76" stroke="#D19773" stroke-opacity=".1" points="380 128 369 156 340 140"/><polygon fill="#DB8A6F" stroke="#D19773" stroke-opacity=".1" points="402 132 396 168 369 156"/><polygon fill="#FBC27F" stroke="#D19773" stroke-opacity=".1" points="462 137 509 139 491 171"/><polygon fill="#CE7660" stroke="#D19773" stroke-opacity=".1" points="425 155 462 137 461 173"/><polygon fill="#BF5D76" stroke="#D19773" stroke-opacity=".1" points="340 140 327 193 309 185"/><polygon fill="#A8526D" stroke="#D19773" stroke-opacity=".1" points="402 132 418 142 396 168"/><polygon fill="#F6B78B" stroke="#D19773" stroke-opacity=".1" points="286 133 309 142 292 179"/><polygon fill="#F7CB8C" stroke="#D19773" stroke-opacity=".1" points="509 139 491 171 542 154"/><polygon fill="#D99860" stroke="#D19773" stroke-opacity=".1" points="542 154 491 171 520 192"/><polygon fill="#D4846D" stroke="#D19773" stroke-opacity=".1" points="418 142 410 172 425 155"/><polygon fill="#EFA872" stroke="#D19773" stroke-opacity=".1" points="410 172 425 155 431 188"/><polygon fill="#954A5E" stroke="#D19773" stroke-opacity=".1" points="425 155 460 187 461 173"/><polygon fill="#C46374" stroke="#D19773" stroke-opacity=".1" points="369 156 340 140 344 188"/><polygon fill="#B95E7F" stroke="#D19773" stroke-opacity=".1" points="286 133 292 179 258 161"/><polygon fill="#944F8B" stroke="#D19773" stroke-opacity=".1" points="258 161 261 177 255 195"/><polygon fill="#B45E69" stroke="#D19773" stroke-opacity=".1" points="418 142 396 168 410 172"/><polygon fill="#D7835F" stroke="#D19773" stroke-opacity=".1" points="462 137 461 173 491 171"/><polygon fill="#BD6D56" stroke="#D19773" stroke-opacity=".1" points="491 171 482 192 520 192"/><polygon fill="#B05D59" stroke="#D19773" stroke-opacity=".1" points="461 173 491 171 482 192"/><polygon fill="#82365A" stroke="#D19773" stroke-opacity=".1" points="461 173 482 192 460 187"/><polygon fill="#9C4083" stroke="#D19773" stroke-opacity=".1" points="258 161 292 179 261 177"/><polygon fill="#B75D79" stroke="#D19773" stroke-opacity=".1" points="309 142 292 179 309 185"/><polygon fill="#F9CB8D" stroke="#D19773" stroke-opacity=".1" points="369 156 362 192 380 183"/><polygon fill="#C86E78" stroke="#D19773" stroke-opacity=".1" points="292 179 301 203 278 191"/><polygon fill="#EA9E86" stroke="#D19773" stroke-opacity=".1" points="261 177 292 179 278 191"/><polygon fill="#AF5078" stroke="#D19773" stroke-opacity=".1" points="292 179 309 185 301 203"/><polygon fill="#D59071" stroke="#D19773" stroke-opacity=".1" points="369 156 344 188 362 192"/><polygon fill="#F9CD90" stroke="#D19773" stroke-opacity=".1" points="431 188 425 155 460 187"/><polygon fill="#AD4F74" stroke="#D19773" stroke-opacity=".1" points="340 140 344 188 327 193"/><polygon fill="#E0A072" stroke="#D19773" stroke-opacity=".1" points="380 183 380 206 388 187"/><polygon fill="#E8AA7D" stroke="#D19773" stroke-opacity=".1" points="344 188 322 223 342 208"/><polygon fill="#ECB984" stroke="#D19773" stroke-opacity=".1" points="380 183 388 187 396 168"/><polygon fill="#F9D49D" stroke="#D19773" stroke-opacity=".1" points="388 187 408 193 396 168"/><polygon fill="#F9D49D" stroke="#D19773" stroke-opacity=".1" points="380 183 396 168 369 156"/><polygon fill="#EDAD87" stroke="#D19773" stroke-opacity=".1" points="261 177 278 191 255 195"/><polygon fill="#A55079" stroke="#D19773" stroke-opacity=".1" points="278 191 277 203 301 203"/><polygon fill="#F3BB7E" stroke="#D19773" stroke-opacity=".1" points="380 206 388 187 408 193"/><polygon fill="#F7BC76" stroke="#D19773" stroke-opacity=".1" points="431 188 460 187 464 208"/><polygon fill="#CC8571" stroke="#D19773" stroke-opacity=".1" points="344 188 362 192 342 208"/><polygon fill="#F7C185" stroke="#D19773" stroke-opacity=".1" points="362 192 380 183 380 206"/><polygon fill="#8A4256" stroke="#D19773" stroke-opacity=".1" points="460 187 490 213 482 192"/><polygon fill="#DC9D72" stroke="#D19773" stroke-opacity=".1" points="362 192 380 206 361 205"/><polygon fill="#C9766E" stroke="#D19773" stroke-opacity=".1" points="327 193 344 188 322 223"/><polygon fill="#A35370" stroke="#D19773" stroke-opacity=".1" points="327 193 322 223 306 217"/><polygon fill="#B4607A" stroke="#D19773" stroke-opacity=".1" points="255 195 278 191 277 203"/><polygon fill="#A5497A" stroke="#D19773" stroke-opacity=".1" points="255 195 277 203 252 222"/><polygon fill="#933A73" stroke="#D19773" stroke-opacity=".1" points="327 193 309 185 301 203 306 217"/><polygon fill="#C67468" stroke="#D19773" stroke-opacity=".1" points="362 192 361 205 348 223"/><polygon fill="#662366" stroke="#D19773" stroke-opacity=".1" points="348 223 361 205 380 206"/><polygon fill="#974F53" stroke="#D19773" stroke-opacity=".1" points="520 192 482 192 490 213 520 205"/><polygon fill="#E19E67" stroke="#D19773" stroke-opacity=".1" points="460 187 464 208 490 213"/><polygon fill="#B26369" stroke="#D19773" stroke-opacity=".1" points="342 208 362 192 348 223"/><polygon fill="#5E2A50" stroke="#D19773" stroke-opacity=".1" points="490 213 520 205 529 218"/><polygon fill="#DB9460" stroke="#D19773" stroke-opacity=".1" points="464 208 490 213 468 220"/><polygon fill="#6A2774" stroke="#D19773" stroke-opacity=".1" points="277 203 294 221 306 217 301 203"/><polygon fill="#8F4A4F" stroke="#D19773" stroke-opacity=".1" points="490 213 529 218 500 245"/><polygon fill="#802A75" stroke="#D19773" stroke-opacity=".1" points="277 203 252 222 294 221"/><polygon fill="#F9C589" stroke="#D19773" stroke-opacity=".1" points="342 208 348 223 322 223"/><polygon fill="#A75472" stroke="#D19773" stroke-opacity=".1" points="252 222 294 221 287 236"/><polygon fill="#F1BB7F" stroke="#D19773" stroke-opacity=".1" points="322 223 348 223 331 253"/><polygon fill="#D8996E" stroke="#D19773" stroke-opacity=".1" points="331 253 348 223 342 245"/><polygon fill="#A05A50" stroke="#D19773" stroke-opacity=".1" points="500 245 529 218 498 273"/><polygon fill="#F8BF7A" stroke="#D19773" stroke-opacity=".1" points="331 253 351 253 345 280"/><polygon fill="#EEA65A" stroke="#D19773" stroke-opacity=".1" points="498 273 509 320 520 279"/><polygon fill="#BB6C4B" stroke="#D19773" stroke-opacity=".1" points="468 284 498 273 471 303"/><polygon fill="#E89553" stroke="#D19773" stroke-opacity=".1" points="471 303 498 273 509 320"/><polygon fill="#B77954" stroke="#D19773" stroke-opacity=".1" points="471 303 509 320 466 320"/><polygon fill="#A15B53" stroke="#D19773" stroke-opacity=".1" points="466 320 509 320 468 338"/><polygon fill="#F2BA70" stroke="#D19773" stroke-opacity=".1" points="520 279 509 320 522 330"/><polygon fill="#BC7255" stroke="#D19773" stroke-opacity=".1" points="534 304 522 330 562 331"/><polygon fill="#A5625C" stroke="#D19773" stroke-opacity=".1" points="522 330 562 331 550 386"/><polygon fill="#CD8754" stroke="#D19773" stroke-opacity=".1" points="509 320 522 330 490 351"/><polygon fill="#AF6751" stroke="#D19773" stroke-opacity=".1" points="509 320 490 351 468 338"/><polygon fill="#BF7B54" stroke="#D19773" stroke-opacity=".1" points="468 338 490 351 440 382"/><polygon fill="#A65E52" stroke="#D19773" stroke-opacity=".1" points="468 338 440 382 444 350"/><polygon fill="#E6A56D" stroke="#D19773" stroke-opacity=".1" points="490 351 522 330 512 382"/><polygon fill="#CE875B" stroke="#D19773" stroke-opacity=".1" points="490 351 512 382 469 394"/><polygon fill="#DB925D" stroke="#D19773" stroke-opacity=".1" points="490 351 469 394 440 382"/><polygon fill="#753653" stroke="#D19773" stroke-opacity=".1" points="402 354 440 382 398 402"/><polygon fill="#8E4E5C" stroke="#D19773" stroke-opacity=".1" points="522 330 512 382 550 386"/><polygon fill="#712F53" stroke="#D19773" stroke-opacity=".1" points="440 382 398 402 432 426"/><polygon fill="#C37456" stroke="#D19773" stroke-opacity=".1" points="440 382 432 426 469 394"/><polygon fill="#6A275D" stroke="#D19773" stroke-opacity=".1" points="512 382 550 386 490 463"/><polygon fill="#7A385C" stroke="#D19773" stroke-opacity=".1" points="512 382 490 463 469 394"/><polygon fill="#9F4E5F" stroke="#D19773" stroke-opacity=".1" points="469 394 490 463 432 426"/><polygon fill="#812F5D" stroke="#D19773" stroke-opacity=".1" points="432 426 490 463 422 451"/><polygon fill="#C58468" stroke="#D19773" stroke-opacity=".1" points="431 188 449 208 440 210"/><polygon fill="#BC716B" stroke="#D19773" stroke-opacity=".1" points="396 168 410 172 408 193"/><polygon fill="#C58468" stroke="#D19773" stroke-opacity=".1" points="410 172 408 193 431 188"/><polygon fill="#D1885F" stroke="#D19773" stroke-opacity=".1" points="420 213 423 235 444 220"/><polygon fill="#D99C6F" stroke="#D19773" stroke-opacity=".1" points="380 206 408 193 420 213"/><polygon fill="#D59764" stroke="#D19773" stroke-opacity=".1" points="408 193 440 210 431 188"/><polygon fill="#D1885F" stroke="#D19773" stroke-opacity=".1" points="408 193 420 213 440 210"/><polygon fill="#87386F" stroke="#D19773" stroke-opacity=".1" points="294 221 306 217 294 249"/><polygon fill="#AF5C6E" stroke="#D19773" stroke-opacity=".1" points="294 249 287 236 294 221"/><polygon fill="#C0724C" stroke="#D19773" stroke-opacity=".1" points="529 218 498 273 520 279"/><polygon fill="#D48C51" stroke="#D19773" stroke-opacity=".1" points="529 218 520 279 540 260"/><polygon fill="#AF5C6E" stroke="#D19773" stroke-opacity=".1" points="294 249 306 217 322 223"/><polygon fill="#55276F" stroke="#D19773" stroke-opacity=".1" points="252 222 287 236 294 249"/><polygon fill="#EBAC79" stroke="#D19773" stroke-opacity=".1" points="331 253 342 245 351 253"/><polygon fill="#662873" stroke="#D19773" stroke-opacity=".1" points="252 222 294 249 245 245"/><polygon fill="#7A2B6D" stroke="#D19773" stroke-opacity=".1" points="245 245 294 249 266 270"/><polygon fill="#D4846B" stroke="#D19773" stroke-opacity=".1" points="294 249 322 223 331 253"/><polygon fill="#EBAC79" stroke="#D19773" stroke-opacity=".1" points="294 249 331 253 299 264"/><polygon fill="#E29F70" stroke="#D19773" stroke-opacity=".1" points="299 264 331 253 345 280"/><polygon fill="#EDB05F" stroke="#D19773" stroke-opacity=".1" points="520 279 522 330 534 304"/><polygon fill="#DC9B59" stroke="#D19773" stroke-opacity=".1" points="520 279 534 304 540 260"/><polygon fill="#CA834D" stroke="#D19773" stroke-opacity=".1" points="540 260 534 304 562 331"/><polygon fill="#D68C6F" stroke="#D19773" stroke-opacity=".1" points="294 249 299 264 266 270"/><polygon fill="#B46868" stroke="#D19773" stroke-opacity=".1" points="266 270 299 264 272 301"/><polygon fill="#985066" stroke="#D19773" stroke-opacity=".1" points="220 306 272 301 234 399"/><polygon fill="#FAC174" stroke="#D19773" stroke-opacity=".1" points="468 284 471 303 452 311"/><polygon fill="#5A2750" stroke="#D19773" stroke-opacity=".1" points="444 350 440 382 402 354"/><polygon fill="#BC7652" stroke="#D19773" stroke-opacity=".1" points="297 376 367 430 368 409"/><polygon fill="#4F1E56" stroke="#D19773" stroke-opacity=".1" points="234 399 297 376 367 430"/><polygon fill="#984B5B" stroke="#D19773" stroke-opacity=".1" points="406 445 422 451 418 476"/><polygon fill="#5D2C4C" stroke="#D19773" stroke-opacity=".1" points="234 399 390 471 394 525"/><polygon fill="#854659" stroke="#D19773" stroke-opacity=".1" points="432 426 422 451 406 445"/><polygon fill="#A45B55" stroke="#D19773" stroke-opacity=".1" points="406 445 432 426 391 420"/><polygon fill="#5D2552" stroke="#D19773" stroke-opacity=".1" points="234 399 367 430 390 471"/><polygon fill="#853E5C" stroke="#D19773" stroke-opacity=".1" points="406 445 390 471 418 476"/><polygon fill="#5D2552" stroke="#D19773" stroke-opacity=".1" points="422 451 418 476 490 463"/><polygon fill="#732F62" stroke="#D19773" stroke-opacity=".1" points="418 476 490 463 394 525"/><polygon fill="#914758" stroke="#D19773" stroke-opacity=".1" points="394 525 418 476 390 471"/><polygon fill="#974E65" stroke="#D19773" stroke-opacity=".1" points="342 245 351 253 348 223"/><polygon fill="#A85E6D" stroke="#D19773" stroke-opacity=".1" points="266 270 272 301 220 306"/><polygon fill="#7A336F" stroke="#D19773" stroke-opacity=".1" points="220 306 266 270 245 245"/><polygon fill="#C78C6C" stroke="#D19773" stroke-opacity=".1" points="351 253 365 226 379 245"/><polygon fill="#F8D088" stroke="#D19773" stroke-opacity=".1" points="468 284 452 311 441 282"/><polygon fill="#633752" stroke="#D19773" stroke-opacity=".1" points="430 276 441 282 427 295"/><polygon fill="#F7DB9C" stroke="#D19773" stroke-opacity=".1" points="427 295 441 282 452 311"/><polygon fill="#FAD58E" stroke="#D19773" stroke-opacity=".1" points="416 283 427 295 405 315"/><polygon fill="#6C2861" stroke="#D19773" stroke-opacity=".1" points="272 301 234 399 297 376"/><polygon fill="#C9A26B" stroke="#D19773" stroke-opacity=".1" points="427 295 405 315 427 306"/><polygon fill="#744154" stroke="#D19773" stroke-opacity=".1" points="427 306 427 312 452 317"/><polygon fill="#AC6960" stroke="#D19773" stroke-opacity=".1" points="272 301 297 376 307 309"/><polygon fill="#5F3752" stroke="#D19773" stroke-opacity=".1" points="405 315 427 306 427 312"/><polygon fill="#C99667" stroke="#D19773" stroke-opacity=".1" points="405 315 427 312 422 323"/><polygon fill="#F2B66E" stroke="#D19773" stroke-opacity=".1" points="452 317 466 320 468 338"/><polygon fill="#F9CC89" stroke="#D19773" stroke-opacity=".1" points="452 317 468 338 444 350"/><polygon fill="#D3A46C" stroke="#D19773" stroke-opacity=".1" points="402 354 444 350 413 335"/><polygon fill="#E8B576" stroke="#D19773" stroke-opacity=".1" points="413 335 422 323 383 331"/><polygon fill="#D88F5A" stroke="#D19773" stroke-opacity=".1" points="297 376 364 359 368 409"/><polygon fill="#AD654F" stroke="#D19773" stroke-opacity=".1" points="364 359 368 409 381 361"/><polygon fill="#792E55" stroke="#D19773" stroke-opacity=".1" points="367 430 390 471 406 445"/><polygon fill="#F1BF7A" stroke="#D19773" stroke-opacity=".1" points="413 335 444 350 422 323"/><polygon fill="#C39160" stroke="#D19773" stroke-opacity=".1" points="383 331 413 335 402 354"/><polygon fill="#BB875F" stroke="#D19773" stroke-opacity=".1" points="405 315 422 323 383 331"/><polygon fill="#F7D79A" stroke="#D19773" stroke-opacity=".1" points="422 323 444 350 452 317"/><polygon fill="#DEB072" stroke="#D19773" stroke-opacity=".1" points="422 323 452 317 427 312"/><polygon fill="#D38E57" stroke="#D19773" stroke-opacity=".1" points="452 311 471 303 466 320 452 317"/><polygon fill="#DEB072" stroke="#D19773" stroke-opacity=".1" points="452 311 452 317 427 306"/><polygon fill="#B88864" stroke="#D19773" stroke-opacity=".1" points="427 306 452 311 427 295"/><polygon fill="#8E4453" stroke="#D19773" stroke-opacity=".1" points="376 322 405 315 377 307"/><polygon fill="#A06057" stroke="#D19773" stroke-opacity=".1" points="365 311 377 307 368 290"/><polygon fill="#E2A76B" stroke="#D19773" stroke-opacity=".1" points="377 307 405 315 394 295"/><polygon fill="#F9DB9F" stroke="#D19773" stroke-opacity=".1" points="405 315 394 295 416 283"/><polygon fill="#E79C62" stroke="#D19773" stroke-opacity=".1" points="307 309 297 376 354 312"/><polygon fill="#C5885B" stroke="#D19773" stroke-opacity=".1" points="368 290 377 307 394 295"/><polygon fill="#D6895D" stroke="#D19773" stroke-opacity=".1" points="307 309 354 312 345 280"/><polygon fill="#EAA267" stroke="#D19773" stroke-opacity=".1" points="307 309 345 280 322 272"/><polygon fill="#F7C684" stroke="#D19773" stroke-opacity=".1" points="400 276 394 295 416 283"/><polygon fill="#4F2150" stroke="#D19773" stroke-opacity=".1" points="430 276 427 295 416 283"/><polygon fill="#442551" stroke="#D19773" stroke-opacity=".1" points="441 282 455 268 430 276"/><polygon fill="#905952" stroke="#D19773" stroke-opacity=".1" points="429 268 430 276 409 268"/><polygon fill="#3F1C53" stroke="#D19773" stroke-opacity=".1" points="400 276 416 283 430 276 409 268"/><polygon fill="#F9BD74" stroke="#D19773" stroke-opacity=".1" points="368 290 394 295 400 276"/><polygon fill="#BE7356" stroke="#D19773" stroke-opacity=".1" points="368 290 400 276 379 266"/><polygon fill="#C67B5C" stroke="#D19773" stroke-opacity=".1" points="307 309 322 272 272 301"/><polygon fill="#C68464" stroke="#D19773" stroke-opacity=".1" points="272 301 322 272 299 264"/><polygon fill="#744855" stroke="#D19773" stroke-opacity=".1" points="430 276 455 268 429 268"/><polygon fill="#98525A" stroke="#D19773" stroke-opacity=".1" points="368 290 379 266 345 280"/><polygon fill="#B1625D" stroke="#D19773" stroke-opacity=".1" points="345 280 379 266 351 253"/><polygon fill="#B1625D" stroke="#D19773" stroke-opacity=".1" points="345 280 368 290 354 312"/><polygon fill="#D89F6A" stroke="#D19773" stroke-opacity=".1" points="429 268 455 268 444 254"/><polygon fill="#C47F55" stroke="#D19773" stroke-opacity=".1" points="444 254 455 268 457 248"/><polygon fill="#BD7859" stroke="#D19773" stroke-opacity=".1" points="414 254 444 254 423 235"/><polygon fill="#EAAF77" stroke="#D19773" stroke-opacity=".1" points="351 253 348 223 365 226"/><polygon fill="#E09B72" stroke="#D19773" stroke-opacity=".1" points="348 223 365 226 361 216"/><polygon fill="#743854" stroke="#D19773" stroke-opacity=".1" points="367 430 406 445 391 420"/><polygon fill="#8E4C50" stroke="#D19773" stroke-opacity=".1" points="367 430 391 420 368 409"/><polygon fill="#6D3A3D" stroke="#D19773" stroke-opacity=".1" points="368 409 391 420 398 402"/><polygon fill="#A5585D" stroke="#D19773" stroke-opacity=".1" points="398 402 391 420 432 426"/><polygon fill="#87484C" stroke="#D19773" stroke-opacity=".1" points="368 409 398 402 381 361"/><polygon fill="#571C4F" stroke="#D19773" stroke-opacity=".1" points="381 361 398 402 402 354"/><polygon fill="#6B3B51" stroke="#D19773" stroke-opacity=".1" points="402 354 383 331 381 361"/><polygon fill="#6B3B51" stroke="#D19773" stroke-opacity=".1" points="383 331 405 315 376 322"/><polygon fill="#7E3854" stroke="#D19773" stroke-opacity=".1" points="377 307 376 322 365 311"/><polygon fill="#E9A461" stroke="#D19773" stroke-opacity=".1" points="354 312 297 376 364 359"/><polygon fill="#571C4F" stroke="#D19773" stroke-opacity=".1" points="381 361 383 331 376 322 365 311 354 312 364 359"/><polygon fill="#8D4956" stroke="#D19773" stroke-opacity=".1" points="354 312 365 311 368 290"/><polygon fill="#F2B974" stroke="#D19773" stroke-opacity=".1" points="441 282 468 284 455 268"/><polygon fill="#C8885C" stroke="#D19773" stroke-opacity=".1" points="429 268 444 254 414 254"/><polygon fill="#CD9566" stroke="#D19773" stroke-opacity=".1" points="414 254 429 268 409 268"/><polygon fill="#AC7068" stroke="#D19773" stroke-opacity=".1" points="351 253 379 245 379 266"/><polygon fill="#6C2E57" stroke="#D19773" stroke-opacity=".1" points="400 276 409 268 394 265"/><polygon fill="#9D5C58" stroke="#D19773" stroke-opacity=".1" points="409 268 414 254 379 245 379 266 400 276 394 265"/><polygon fill="#CD9971" stroke="#D19773" stroke-opacity=".1" points="365 226 379 245 383 226"/><polygon fill="#B26D5D" stroke="#D19773" stroke-opacity=".1" points="391 224 420 213 423 235"/><polygon fill="#91535D" stroke="#D19773" stroke-opacity=".1" points="414 254 379 245 383 226 391 224 423 235"/><polygon fill="#B0746A" stroke="#D19773" stroke-opacity=".1" points="383 226 391 224 379 218"/><polygon fill="#F0BD8A" stroke="#D19773" stroke-opacity=".1" points="379 218 383 226 367 218"/><polygon fill="#F6DA9B" stroke="#D19773" stroke-opacity=".1" points="365 226 383 226 367 218"/><polygon fill="#F9F0B8" stroke="#D19773" stroke-opacity=".1" points="365 226 367 218 361 216"/><polygon fill="#9E5663" stroke="#D19773" stroke-opacity=".1" points="367 218 372 210 361 216"/><polygon fill="#CC8A6A" stroke="#D19773" stroke-opacity=".1" points="380 206 420 213 391 224"/><polygon fill="#DA9172" stroke="#D19773" stroke-opacity=".1" points="367 218 379 218 372 210"/><polygon fill="#7B3962" stroke="#D19773" stroke-opacity=".1" points="372 210 380 206 391 224 379 218 372 210"/><polygon fill="#D49A5A" stroke="#D19773" stroke-opacity=".1" points="455 268 468 284 474 260"/><polygon fill="#C87A4C" stroke="#D19773" stroke-opacity=".1" points="500 245 498 273 468 284"/><polygon fill="#DA8951" stroke="#D19773" stroke-opacity=".1" points="490 213 487 235 500 245"/><polygon fill="#F2AF67" stroke="#D19773" stroke-opacity=".1" points="468 220 490 213 487 235"/><polygon fill="#C78052" stroke="#D19773" stroke-opacity=".1" points="455 268 474 260 472 231"/><polygon fill="#ECA45F" stroke="#D19773" stroke-opacity=".1" points="468 284 500 245 487 235 468 220 460 226 472 231 474 260"/><polygon fill="#BB7E5A" stroke="#D19773" stroke-opacity=".1" points="444 220 440 210 449 208"/><polygon fill="#F7F0AE" stroke="#D19773" stroke-opacity=".1" points="468 220 460 226 461 217"/><polygon fill="#AC5D58" stroke="#D19773" stroke-opacity=".1" points="431 188 464 208 449 208"/><polygon fill="#4C2055" stroke="#D19773" stroke-opacity=".1" points="468 220 461 217 451 221 464 208"/><polygon fill="#E9B674" stroke="#D19773" stroke-opacity=".1" points="455 268 472 231 457 248"/><polygon fill="#F5D997" stroke="#D19773" stroke-opacity=".1" points="460 226 461 217 451 221"/><polygon fill="#D9A46E" stroke="#D19773" stroke-opacity=".1" points="420 213 440 210 444 220"/><polygon fill="#F7C07B" stroke="#D19773" stroke-opacity=".1" points="457 248 472 231 460 226 451 221 444 220"/><polygon fill="#D89B65" stroke="#D19773" stroke-opacity=".1" points="457 248 444 220 423 235 444 254"/><polygon fill="#D89B65" stroke="#D19773" stroke-opacity=".1" points="451 221 456 216 446 215"/><polygon fill="#682B58" stroke="#D19773" stroke-opacity=".1" points="446 215 451 221 444 220"/><polygon fill="#682B58" stroke="#D19773" stroke-opacity=".1" points="456 216 446 215 449 208 464 208"/></svg>