<svg xmlns="http://www.w3.org/2000/svg" xmlns:xlink="http://www.w3.org/1999/xlink" id="Layer_1" width="500" height="500" x="0" y="0" enable-background="new 0 0 500 500" version="1.1" viewBox="0 0 500 500" xml:space="preserve"><g><g transform="translate(250 250) rotate(-5)"><polygon fill="#0265e6" points="-50 -50 50 -50 -50 50"/><polygon fill="#0265e6" points="-50 50 50 -50 50 50"/></g><g><g><g transform="translate(250 250) translate(0 -100) rotate(45) scale(.5 .5)"><polygon fill="#0265e6" points="-50 -50 50 -50 -50 50"/><polygon fill="#0265e6" points="-50 50 50 -50 50 50"/></g></g></g><g><g transform="translate(250 250) translate(-40 90) scale(.2 .6)"><polygon fill="#0265e6" points="-50 -50 50 -50 -50 50"/><polygon fill="#0265e6" points="-50 50 50 -50 50 50"/></g><g><g transform="translate(250 250) translate(-40 90) translate(0 70) scale(.2 .6)"><polygon fill="#0265e6" points="-50 -50 50 -50 -50 50"/><polygon fill="#0265e6" points="-50 50 50 -50 50 50"/></g></g></g><g><g><g transform="translate(250 250) translate(40 90) rotate(-30) scale(.2 .6)"><polygon fill="#0265e6" points="-50 -50 50 -50 -50 50"/><polygon fill="#0265e6" points="-50 50 50 -50 50 50"/></g><g><g><g transform="translate(250 250) translate(40 90) rotate(-30) rotate(-10) translate(0 70) scale(.2 .6)"><polygon fill="#0265e6" points="-50 -50 50 -50 -50 50"/><polygon fill="#0265e6" points="-50 50 50 -50 50 50"/></g></g></g></g></g><g><g><g transform="translate(250 250) translate(-90 -40) rotate(-10) scale(.6 .2)"><polygon fill="#0265e6" points="-50 -50 50 -50 -50 50"/><polygon fill="#0265e6" points="-50 50 50 -50 50 50"/></g></g><g><g><g><g transform="translate(250 250) translate(-90 -40) translate(-70 0) rotate(-40) translate(-20 30) scale(.6 .2)"><polygon fill="#0265e6" points="-50 -50 50 -50 -50 50"/><polygon fill="#0265e6" points="-50 50 50 -50 50 50"/></g></g></g></g></g><g><g transform="translate(250 250) translate(90 -40) scale(.6 .2)"><polygon fill="#0265e6" points="-50 -50 50 -50 -50 50"/><polygon fill="#0265e6" points="-50 50 50 -50 50 50"/></g><g><g><g><g transform="translate(250 250) translate(90 -40) translate(70 0) rotate(-30) translate(10 -20) scale(.6 .2)"><polygon fill="#0265e6" points="-50 -50 50 -50 -50 50"/><polygon fill="#0265e6" points="-50 50 50 -50 50 50"/></g></g></g></g></g></g></svg>